<svg xmlns="http://www.w3.org/2000/svg" viewBox="0 0 100 100">
  <path fill="currentColor" d="M72.26,34.09a32,32,0,0,0-23.82-8.88,31.21,31.21,0,0,0-4.47.57L42.59,23.4a.74.74,0,0,0-1-.27L39,24.63l-2.32-4A4.35,4.35,0,0,0,30.7,19l-4.15,2.4A4.35,4.35,0,0,0,25,27.35l2.32,4-2.6,1.5a.74.74,0,0,0-.27,1l1.42,2.47a33.6,33.6,0,0,0-8.08,21.94v1.22A17.57,17.57,0,0,0,35.3,77.08H64.7A17.57,17.57,0,0,0,82.25,59.53v-2.1A32,32,0,0,0,72.26,34.09Zm8.49,25.44a16.07,16.07,0,0,1-16,16H35.3a16.07,16.07,0,0,1-16-16V58.31a32,32,0,0,1,8.8-22.18l2.13-1.23h0l5.2-3L43,27.51a29.61,29.61,0,0,1,5.53-.8A30.75,30.75,0,0,1,80.75,57.43ZM72.63,41.39a.74.74,0,0,0-1-.21,8.41,8.41,0,0,1-4.4,1.26A8.79,8.79,0,0,1,58.69,32a.75.75,0,0,0-.52-.84A28.45,28.45,0,0,0,48.68,30,27.1,27.1,0,0,0,22.55,57v3.18c0,6.95,7,12.15,13.2,12.15h28.5c6.23,0,13.2-5.2,13.2-12.15v-3.9A25.33,25.33,0,0,0,72.63,41.39ZM45.2,51.73A8.25,8.25,0,1,1,37,43.48,8.26,8.26,0,0,1,45.2,51.73Zm26.1,0a8.25,8.25,0,1,1-8.25-8.25A8.26,8.26,0,0,1,71.3,51.73ZM43,51.73a6,6,0,1,1-6-6A6,6,0,0,1,43,51.73Zm26.1,0a6,6,0,1,1-6-6A6,6,0,0,1,69.05,51.73Z"/>
</svg>